<?xml version="1.0" encoding="UTF-8"?>
<svg id="Capa_2" data-name="Capa 2" xmlns="http://www.w3.org/2000/svg" viewBox="0 0 1265.32 410.49">
  <defs>
    <style>
      .cls-1 {
        fill: #000;
      }

      .cls-1, .cls-2, .cls-3 {
        stroke-width: 0px;
      }

      .cls-2 {
        fill: #6fc;
      }

      .cls-3 {
        fill: #3cf;
      }
    </style>
  </defs>
  <g id="Capa_1_copia" data-name="Capa 1 copia">
    <g>
      <g>
        <polygon class="cls-3" points="35.48 410.49 0 410.29 .03 244.46 244.48 0 410.24 0 410.24 35.61 35.48 410.49"/>
        <polygon class="cls-1" points="208.88 311.82 310.72 209.97 410.26 309.51 410.26 409.56 306.63 409.56 208.88 311.82"/>
        <polygon class="cls-2" points="145.19 28.33 28.48 145.03 .61 145.03 .61 .22 145.19 .14 145.19 28.33"/>
      </g>
      <g>
        <g>
          <path class="cls-1" d="M531.75,227.44c12.33,24.84,24.74,49.65,37.22,74.42-12.71-.81-19.06-1.31-31.77-2.54-10.58-20.62-21.09-41.27-31.56-61.95v58.34c-11.87-1.57-17.8-2.46-29.67-4.48,0-71.99,0-143.99,0-215.98,11.87,2.01,17.8,2.9,29.67,4.47v134.85c10.56-43.74,21.07-87.49,31.56-131.24,11.87,1.15,17.8,1.62,29.67,2.4-11.66,47.24-23.37,94.48-35.12,141.7Z"/>
          <path class="cls-1" d="M593.76,87.16c11.87.48,17.8.64,29.67.81,0,71.99,0,143.99,0,215.98-11.87-.18-17.8-.34-29.67-.81V87.16Z"/>
          <path class="cls-1" d="M657.66,88.04c9.77-.1,14.66-.2,24.43-.46,10.7,19.45,21.43,38.87,32.19,58.28v-59.45c11.45-.51,17.17-.81,28.62-1.48v215.98c-11.45.67-17.17.97-28.62,1.48v-100.4c-9.36-17.25-18.69-34.51-27.99-51.8v153.24c-11.45.34-17.17.46-28.62.58,0-71.99,0-143.99,0-215.98Z"/>
          <path class="cls-1" d="M859.74,250.21c.67,25.93-16.68,47.24-42.67,49-25.5,1.73-44.31-16.15-42.56-42.26V124.85c-1.57-26.5,17.27-45.95,42.56-48.56,25.74-2.66,43.53,16.23,42.67,41.82,0,17.65,0,35.3,0,52.95-11.87,1-17.8,1.5-29.67,2.48,0-17.65,0-35.3,0-52.95,0-9.69-4.3-14.21-12.9-13.6-.08,0-.13.01-.21.02-8.53.68-12.79,5.89-12.79,15.65,0,44.03,0,88.07,0,132.1,0,9.76,4.3,14.31,12.89,13.62,8.67-.69,13-5.93,13-15.7,0-6.12,0-9.18,0-15.3-5.16.42-7.74.63-12.9,1.05v-30.82c17.03-1.36,25.54-2.08,42.57-3.52,0,15.38,0,30.75,0,46.12Z"/>
          <path class="cls-3" d="M891.34,73.5c15.23-1.29,30.47-2.54,45.71-3.72,26.52-4.01,40.27,18.88,39.53,42.6,0,41.72,0,83.44,0,125.16.67,25.34-14.43,47.9-41.41,48.36-14.61,1.14-29.22,2.34-43.82,3.57,0-71.99,0-143.99,0-215.98ZM921.01,101.76c0,51.52,0,103.04,0,154.56,5.2-.42,7.8-.63,13-1.03,8.6-.67,12.9-5.87,12.9-15.63,0-41.72,0-83.44,0-125.16,0-9.83-4.3-14.43-12.9-13.76-5.2.41-7.8.61-13,1.03Z"/>
          <path class="cls-3" d="M1091.32,236.44c.75,25.89-16.83,45.83-42.67,46.3-25.38.47-44.29-17.3-42.56-43.57,0-44.03,0-88.07,0-132.1-1.58-26.27,17.05-45.87,42.56-47.24,26.02-1.41,43.44,19.03,42.67,44.52v132.1ZM1061.65,104.8c0-9.69-4.3-14.48-12.9-14.27-.08,0-.13,0-.21,0-8.53.28-12.79,5.35-12.79,15.11v132.1c0,9.76,4.3,14.45,12.89,14.17,8.67-.29,13-5.26,13-15.02,0-44.03,0-88.07,0-132.1Z"/>
          <path class="cls-3" d="M1177.76,175.84c-8.69-16.15-17.43-32.27-26.21-48.37v152.14c-11.45-.5-17.17-.68-28.62-.9,0-71.99,0-143.99,0-215.98,9.35.18,14.03.31,23.38.68,10.53,19.11,21.02,38.24,31.45,57.4,10.41-17.72,20.89-35.39,31.45-53.01,9.35.96,14.03,1.49,23.38,2.7v215.98c-11.45-1.48-17.17-2.12-28.62-3.22v-152.14c-8.77,14.89-17.51,29.8-26.21,44.73Z"/>
        </g>
        <path class="cls-1" d="M1265.32,86.64c0,6.53-4.84,10.82-11.07,9.85-6.22-.97-11-6.75-11-13.22s4.78-10.92,11.07-9.94,11,6.78,11,13.31ZM1263.19,86.29c0-5.35-3.72-10.01-8.88-10.82-5.16-.8-8.91,2.8-8.91,8.12s3.75,9.99,8.85,10.78c5.1.79,8.94-2.73,8.94-8.08ZM1257.78,87.57c1.06,1.88,1.59,2.82,2.66,4.7-1.3-.21-1.95-.32-3.25-.52-.91-1.62-1.37-2.42-2.28-4.04-.05,0-.07-.01-.12-.02-.81-.13-1.22-.19-2.03-.31v3.68c-1.3-.2-1.95-.3-3.25-.49v-12.73c2.11.32,3.17.48,5.28.81,3.31.52,5.28,2.61,5.28,5.37,0,1.87-.81,3.08-2.28,3.57ZM1254.56,85.09c1.47.23,2.31-.36,2.31-1.61s-.84-2.14-2.31-2.37c-.74-.11-1.11-.17-1.84-.29v3.97c.74.11,1.11.17,1.84.29Z"/>
      </g>
    </g>
  </g>
</svg>